<?xml version="1.0" encoding="UTF-8"?>
<svg id="Warstwa_2" data-name="Warstwa 2" xmlns="http://www.w3.org/2000/svg" viewBox="0 0 124.19 211.88">
  <g id="Object">
    <g>
      <path d="m11.6,148.81v-16.78h-3.61v16.78c-4,.84-7.02,4.39-7.02,8.64,0,2.03.71,4.02,2,5.59l2.48-2.03c-.83-1.01-1.27-2.25-1.27-3.56,0-3.1,2.52-5.62,5.62-5.62s5.62,2.52,5.62,5.62c0,1.34-.48,2.64-1.35,3.65l2.44,2.09c1.37-1.6,2.12-3.64,2.12-5.74,0-4.25-3.02-7.8-7.02-8.64Z" style="fill: #503643;"/>
      <path d="m116.2,148.81v-16.78h-3.61v16.78c-4,.84-7.02,4.39-7.02,8.64,0,2.03.71,4.02,2,5.59l2.48-2.03c-.83-1.01-1.27-2.25-1.27-3.56,0-3.1,2.52-5.62,5.62-5.62s5.62,2.52,5.62,5.62c0,1.34-.48,2.64-1.35,3.65l2.44,2.09c1.37-1.6,2.12-3.64,2.12-5.74,0-4.25-3.02-7.8-7.02-8.64Z" style="fill: #503643;"/>
      <g>
        <path d="m124.19,132.37c0,2.7-2.19,4.9-4.9,4.9h0c-2.7,0-4.89-2.19-4.89-4.9v-5.23c0-2.7,2.19-4.9,4.89-4.9h0c2.71,0,4.9,2.19,4.9,4.9v5.23Z" style="fill: #e64661;"/>
        <path d="m9.79,132.37c0,2.7-2.19,4.9-4.9,4.9h0c-2.7,0-4.9-2.19-4.9-4.9v-5.23c0-2.7,2.19-4.9,4.9-4.9h0c2.7,0,4.9,2.19,4.9,4.9v5.23Z" style="fill: #e64661;"/>
        <path d="m121.08,134.87c0,3.69-2.99,6.68-6.68,6.68h0c-3.69,0-6.68-2.99-6.68-6.68v-10.24c0-3.69,2.99-6.68,6.68-6.68h0c3.69,0,6.68,2.99,6.68,6.68v10.24Z" style="fill: #55bf9b;"/>
        <path d="m16.47,134.87c0,3.69-2.99,6.68-6.68,6.68h0c-3.69,0-6.68-2.99-6.68-6.68v-10.24c0-3.69,2.99-6.68,6.68-6.68h0c3.69,0,6.68,2.99,6.68,6.68v10.24Z" style="fill: #55bf9b;"/>
      </g>
      <g>
        <path d="m63.38,37.78c0,.71-.57,1.28-1.28,1.28h0c-.71,0-1.28-.57-1.28-1.28V7.96c0-.71.57-1.28,1.28-1.28h0c.71,0,1.28.57,1.28,1.28v29.82Z" style="fill: #503643;"/>
        <path d="m68.77,6.68c0-3.69-2.99-6.68-6.68-6.68s-6.68,2.99-6.68,6.68,2.99,6.68,6.68,6.68,6.68-2.99,6.68-6.68Z" style="fill: #e64661;"/>
      </g>
      <g>
        <rect x="34.69" y="165.07" width="5.71" height="43.7" style="fill: #503643;"/>
        <rect x="83.79" y="165.07" width="5.71" height="43.7" style="fill: #503643;"/>
      </g>
      <g>
        <rect x="107.72" y="75.89" width="8.23" height="7.9" style="fill: #8bca9b;"/>
        <rect x="8.24" y="75.89" width="8.23" height="7.9" style="fill: #8bca9b;"/>
        <rect x="99.15" y="69.55" width="12.69" height="19.74" style="fill: #503643;"/>
        <rect x="12.35" y="69.55" width="12.69" height="19.74" style="fill: #503643;"/>
      </g>
      <rect x="18.7" y="90.58" width="86.8" height="82.79" rx="14.69" ry="14.69" style="fill: #55bf9b;"/>
      <path d="m62.1,30.49c-23.97,0-43.4,19.43-43.4,43.4v22.03h86.8v-22.03c0-23.97-19.43-43.4-43.4-43.4Z" style="fill: #55bf9b;"/>
      <path d="m115.85,106.94c0,6.09-4.93,11.02-11.02,11.02H19.36c-6.08,0-11.02-4.93-11.02-11.02h0c0-6.08,4.93-11.02,11.02-11.02h85.46c6.08,0,11.02,4.93,11.02,11.02h0Z" style="fill: #f7b942;"/>
      <g>
        <path d="m84.2,65.44c2.71-2.71,2.71-7.09,0-9.8-2.71-2.71-7.09-2.71-9.8,0-2.71,2.71-2.71,7.09,0,9.8,2.71,2.71,7.09,2.71,9.8,0Z" style="fill: #f3edbb;"/>
        <path d="m49.79,65.44c2.71-2.71,2.71-7.09,0-9.8-2.71-2.71-7.09-2.71-9.8,0-2.71,2.71-2.71,7.09,0,9.8,2.71,2.71,7.09,2.71,9.8,0Z" style="fill: #f3edbb;"/>
      </g>
      <g>
        <path d="m91.7,83.8c0,3.75-3.04,6.79-6.79,6.79h-45.62c-3.75,0-6.79-3.04-6.79-6.79h0c0-3.75,3.04-6.79,6.79-6.79h45.62c3.75,0,6.79,3.04,6.79,6.79h0Z" style="fill: #503643;"/>
        <path d="m70.58,81.65h-25.45v1.35c0,2.34,1.9,4.24,4.24,4.24s4.24-1.9,4.24-4.24c0,2.34,1.9,4.24,4.24,4.24s4.24-1.9,4.24-4.24c0,2.34,1.9,4.24,4.24,4.24s4.24-1.9,4.24-4.24c0,2.34,1.9,4.24,4.24,4.24s4.24-1.9,4.24-4.24v-1.35h-8.48Z" style="fill: #f3edbb;"/>
      </g>
      <g>
        <path d="m43.69,161.74c0,1.84-1.49,3.33-3.33,3.33h0c-1.84,0-3.33-1.49-3.33-3.33v-5.65c0-1.84,1.49-3.33,3.33-3.33h0c1.84,0,3.33,1.49,3.33,3.33v5.65Z" style="fill: #8bca9b;"/>
        <path d="m52.39,161.74c0,1.84-1.49,3.33-3.33,3.33h0c-1.84,0-3.33-1.49-3.33-3.33v-5.65c0-1.84,1.49-3.33,3.33-3.33h0c1.84,0,3.33,1.49,3.33,3.33v5.65Z" style="fill: #8bca9b;"/>
        <path d="m61.08,161.74c0,1.84-1.49,3.33-3.33,3.33h0c-1.84,0-3.33-1.49-3.33-3.33v-5.65c0-1.84,1.49-3.33,3.33-3.33h0c1.84,0,3.33,1.49,3.33,3.33v5.65Z" style="fill: #8bca9b;"/>
        <path d="m69.78,161.74c0,1.84-1.49,3.33-3.33,3.33h0c-1.84,0-3.33-1.49-3.33-3.33v-5.65c0-1.84,1.49-3.33,3.33-3.33h0c1.84,0,3.33,1.49,3.33,3.33v5.65Z" style="fill: #8bca9b;"/>
        <path d="m78.47,161.74c0,1.84-1.49,3.33-3.33,3.33h0c-1.84,0-3.33-1.49-3.33-3.33v-5.65c0-1.84,1.49-3.33,3.33-3.33h0c1.84,0,3.33,1.49,3.33,3.33v5.65Z" style="fill: #8bca9b;"/>
        <path d="m87.16,161.74c0,1.84-1.49,3.33-3.33,3.33h0c-1.84,0-3.33-1.49-3.33-3.33v-5.65c0-1.84,1.49-3.33,3.33-3.33h0c1.84,0,3.33,1.49,3.33,3.33v5.65Z" style="fill: #8bca9b;"/>
      </g>
      <path d="m49.12,211.88c0-6.39-5.18-11.57-11.57-11.57s-11.57,5.18-11.57,11.57h23.15Z" style="fill: #8bca9b;"/>
      <path d="m97.8,211.88c0-6.39-5.18-11.57-11.57-11.57s-11.57,5.18-11.57,11.57h23.15Z" style="fill: #8bca9b;"/>
      <path d="m91.7,183.06c0-2.79-2.26-5.05-5.05-5.05s-5.05,2.26-5.05,5.05,2.26,5.05,5.05,5.05,5.05-2.26,5.05-5.05Z" style="fill: #8bca9b;"/>
      <path d="m42.6,183.06c0-2.79-2.26-5.05-5.05-5.05s-5.05,2.26-5.05,5.05,2.26,5.05,5.05,5.05,5.05-2.26,5.05-5.05Z" style="fill: #8bca9b;"/>
    </g>
  </g>
</svg>